<svg width="589.2400024414062px" height="206.06000366210938px" xmlns="http://www.w3.org/2000/svg" viewBox="-44.6200012207031 -28.03000183105469 589.2400024414062 206.06000366210938" style="background: none;" preserveAspectRatio="xMidYMid"><defs><filter id="editing-raise" x="-100%" y="-100%" width="300%" height="300%"><feFlood flood-color="#ccc" result="flood-surface"></feFlood><feFlood flood-color="#777" result="flood-extrude"></feFlood><feMorphology operator="erode" in="SourceAlpha" radius="1" result="erode"></feMorphology><feConvolveMatrix in="erode" result="shadow" order="11,8" divisor="1" kernelMatrix="0 0 0 1 1 1 1 1 0 0 0 0 0 1 0 0 0 0 0 1 0 0 0 0 1 0 0 0 0 0 1 0 0 0 0 1 0 0 0 0 0 1 0 0 0 0 1 0 0 0 0 0 1 0 0 0 0 0 1 0 0 0 1 0 0 0 0 0 0 1 1 0 1 1 0 0 0 0 0 0 0 0 1 0 0 0 0 0"></feConvolveMatrix><feOffset dx="0" dy="4" in="shadow" result="offset"></feOffset><feGaussianBlur in="offset" stdDeviation="0.2" result="blur"></feGaussianBlur><feComposite operator="in" in="flood-extrude" in2="blur" result="extrude"></feComposite><feMorphology operator="erode" in="SourceAlpha" radius="1" result="erode2"></feMorphology><feConvolveMatrix in="erode2" result="out" order="4,4" divisor="1" kernelMatrix="0 1 1 0 1 0 0 1 1 0 0 1 0 1 1 0 "></feConvolveMatrix><feComposite operator="in" in="flood-surface" in2="out" result="text"></feComposite><feMerge><feMergeNode in="extrude"></feMergeNode><feMergeNode in="text"></feMergeNode></feMerge></filter></defs><g filter="url(#editing-raise)"><g transform="translate(41.04499626159668, 128.53499937057495)"><path d="M61.98-23.80L61.98-23.80L61.98-23.80Q64.98-21.62 64.98-16.96L64.98-16.96L64.98-16.96Q64.98-12.30 62.96-9.03L62.96-9.03L62.96-9.03Q60.95-5.75 57.04-3.22L57.04-3.22L57.04-3.22Q48.65 2.19 33.98 2.19L33.98 2.19L33.98 2.19Q19.32 2.19 11.33-5.46L11.33-5.46L11.33-5.46Q3.33-13.11 3.33-26.68L3.33-26.68L3.33-26.68Q3.33-45.89 13.34-60.49L13.34-60.49L13.34-60.49Q20.93-71.30 34.50-75.90L34.50-75.90L34.50-75.90Q41.52-78.20 48.41-78.20L48.41-78.20L48.41-78.20Q55.32-78.20 59.57-77.28L59.57-77.28L59.57-77.28Q63.83-76.36 67.05-74.52L67.05-74.52L67.05-74.52Q74.06-70.50 74.06-64.06L74.06-64.06L74.06-64.06Q74.06-58.19 68.54-53.82L68.54-53.82L68.54-53.82Q63.48-49.91 59.34-49.91L59.34-49.91L59.34-49.91Q55.20-49.91 53.48-50.48L53.48-50.48L53.48-50.48Q53.94-54.63 53.94-57.33L53.94-57.33L53.94-57.33Q53.94-60.03 53.82-61.98L53.82-61.98L53.82-61.98Q53.71-63.94 53.13-65.78L53.13-65.78L53.13-65.78Q51.98-70.03 48.47-70.03L48.47-70.03L48.47-70.03Q44.97-70.03 41.46-66.76L41.46-66.76L41.46-66.76Q37.95-63.48 34.96-57.96L34.96-57.96L34.96-57.96Q28.18-45.43 28.18-30.59L28.18-30.59L28.18-30.59Q28.18-23.46 32.20-19.38L32.20-19.38L32.20-19.38Q36.23-15.29 44.85-15.29L44.85-15.29L44.85-15.29Q51.29-15.29 57.39-19.55L57.39-19.55L57.39-19.55Q60.03-21.39 61.98-23.80ZM99.59 2.30L99.59 2.30L99.59 2.30Q74.29 2.30 74.29-21.51L74.29-21.51L74.29-21.51Q74.29-38.41 83.61-49.34L83.61-49.34L83.61-49.34Q93.50-60.95 110.63-60.95L110.63-60.95L110.63-60.95Q123.05-60.95 129.38-55.20L129.38-55.20L129.38-55.20Q135.70-49.45 135.70-37.38L135.70-37.38L135.70-37.38Q135.70-18.98 125.81-8.28L125.81-8.28L125.81-8.28Q116.15 2.30 99.59 2.30ZM102.58-47.73L102.58-47.73L102.58-47.73Q101.20-44.62 100.11-39.96L100.11-39.96L100.11-39.96Q99.02-35.30 97.63-27.95L97.63-27.95L97.63-27.95Q96.25-20.59 96.25-11.50L96.25-11.50L96.25-11.50Q96.25-8.51 97.23-6.56L97.23-6.56L97.23-6.56Q98.21-4.60 100.86-4.60L100.86-4.60L100.86-4.60Q103.50-4.60 105.17-5.87L105.17-5.87L105.17-5.87Q106.84-7.13 108.10-10.12L108.10-10.12L108.10-10.12Q110.40-15.41 112.24-25.24L112.24-25.24L112.24-25.24Q114.08-35.08 114.25-39.33L114.25-39.33L114.25-39.33Q114.42-43.59 114.42-46.75L114.42-46.75L114.42-46.75Q114.42-49.91 113.50-51.98L113.50-51.98L113.50-51.98Q112.59-54.05 110.00-54.05L110.00-54.05L110.00-54.05Q107.41-54.05 105.69-52.44L105.69-52.44L105.69-52.44Q103.96-50.83 102.58-47.73ZM169.97-6.33L169.97-6.33L169.97-6.33Q166.41 2.30 155.02 2.30L155.02 2.30L155.02 2.30Q149.27 2.30 145.59-1.73L145.59-1.73L145.59-1.73Q142.60-5.06 142.60-8.86L142.60-8.86L142.60-8.86Q142.60-17.48 146.63-36.34L146.63-36.34L155.02-80.50L178.37-82.80L167.21-24.61L167.21-24.61Q165.25-16.10 165.25-13.11L165.25-13.11L165.25-13.11Q165.25-6.56 169.97-6.33ZM207.35-6.33L207.35-6.33L207.35-6.33Q203.78 2.30 192.40 2.30L192.40 2.30L192.40 2.30Q186.53 2.30 182.85-1.73L182.85-1.73L182.85-1.73Q179.75-5.29 179.75-8.86L179.75-8.86L179.75-8.86Q179.75-18.17 184.00-36.34L184.00-36.34L188.26-58.65L211.60-60.95L204.59-24.61L204.59-24.61Q202.63-16.10 202.63-13.11L202.63-13.11L202.63-13.11Q202.63-6.56 207.35-6.33ZM190.33-74.64L190.33-74.64L190.33-74.64Q190.33-79.12 194.06-81.53L194.06-81.53L194.06-81.53Q197.80-83.95 203.21-83.95L203.21-83.95L203.21-83.95Q208.61-83.95 211.89-81.53L211.89-81.53L211.89-81.53Q215.17-79.12 215.17-74.64L215.17-74.64L215.17-74.64Q215.17-70.15 211.54-67.85L211.54-67.85L211.54-67.85Q207.92-65.55 202.52-65.55L202.52-65.55L202.52-65.55Q197.11-65.55 193.72-67.85L193.72-67.85L193.72-67.85Q190.33-70.15 190.33-74.64ZM215.63-5.52L215.63-5.52L229.89-80.50L253.23-82.80L249.67-65.20L249.67-65.20Q248.40-59.80 246.79-56.01L246.79-56.01L246.79-56.01Q249.32-59.23 254.84-60.49L254.84-60.49L254.84-60.49Q256.45-60.95 258.41-60.95L258.41-60.95L258.41-60.95Q269.10-60.95 274.97-54.45L274.97-54.45L274.97-54.45Q280.83-47.96 280.83-35.42L280.83-35.42L280.83-35.42Q280.83-19.09 271.52-8.86L271.52-8.86L271.52-8.86Q261.51 2.30 243.34 2.30L243.34 2.30L243.34 2.30Q230.81 2.30 221.38-1.84L221.38-1.84L221.38-1.84Q218.04-3.33 215.63-5.52ZM244.84-40.25L238.74-6.56L238.74-6.56Q241.16-4.49 244.15-4.49L244.15-4.49L244.15-4.49Q247.14-4.49 248.86-5.64L248.86-5.64L248.86-5.64Q250.59-6.79 251.85-9.09L251.85-9.09L251.85-9.09Q255.30-15.29 258.06-34.27L258.06-34.27L258.06-34.27Q258.87-39.68 258.87-45.08L258.87-45.08L258.87-45.08Q258.87-50.48 257.66-52.21L257.66-52.21L257.66-52.21Q256.45-53.94 254.15-53.94L254.15-53.94L254.15-53.94Q247.14-53.94 244.84-40.25L244.84-40.25ZM323.73-32.32L323.73-32.32L323.73-32.32Q327.87-39.68 327.87-47.15L327.87-47.15L327.87-47.15Q327.87-52.09 324.30-52.09L324.30-52.09L324.30-52.09Q321.54-52.09 318.67-47.38L318.67-47.38L318.67-47.38Q315.68-42.66 314.76-36.57L314.76-36.57L308.78 0L284.97 2.30L296.70-58.65L315.68-60.95L313.61-49.34L313.61-49.34Q319.24-60.95 331.89-60.95L331.89-60.95L331.89-60.95Q338.56-60.95 342.18-57.50L342.18-57.50L342.18-57.50Q345.81-54.05 345.81-46.98L345.81-46.98L345.81-46.98Q345.81-39.91 341.15-35.42L341.15-35.42L341.15-35.42Q336.49-30.94 328.56-30.94L328.56-30.94L328.56-30.94Q325.11-30.94 323.73-32.32ZM384.22-13.00L384.22-13.00L384.22-13.00Q378.24-6.79 367.31-6.79L367.31-6.79L367.31-6.79Q353.63-6.79 350.75-16.79L350.75-16.79L350.75-16.79Q349.83-19.78 349.83-23.12L349.83-23.12L349.83-23.12Q349.83-26.45 350.52-29.90L350.52-29.90L355.93-58.65L379.27-60.95L372.95-27.48L372.95-27.48Q372.72-25.99 372.37-24.38L372.37-24.38L372.37-24.38Q372.03-22.77 372.03-21.10L372.03-21.10L372.03-21.10Q372.03-19.44 372.60-18.34L372.60-18.34L372.60-18.34Q373.18-17.25 373.98-16.56L373.98-16.56L373.98-16.56Q375.36-15.64 377.83-15.64L377.83-15.64L377.83-15.64Q380.31-15.64 382.43-18.63L382.43-18.63L382.43-18.63Q384.56-21.62 385.60-26.80L385.60-26.80L391.92-58.65L414.58-60.95L405.95-15.76L405.95-15.76Q401.70 6.33 392.96 15.07L392.96 15.07L392.96 15.07Q388.47 19.55 382.66 21.33L382.66 21.33L382.66 21.33Q376.86 23.12 369.38 23.12L369.38 23.12L369.38 23.12Q357.31 23.12 350.41 19.32L350.41 19.32L350.41 19.32Q343.51 15.53 343.51 9.20L343.51 9.20L343.51 9.20Q343.51 4.49 347.07 1.78L347.07 1.78L347.07 1.78Q350.64-0.92 356.16-0.92L356.16-0.92L356.16-0.92Q360.99-0.92 364.67 1.15L364.67 1.15L364.67 1.15Q366.85 2.42 367.89 4.03L367.89 4.03L367.89 4.03Q365.24 6.33 365.24 10.12L365.24 10.12L365.24 10.12Q365.24 15.18 369.84 15.18L369.84 15.18L369.84 15.18Q377.43 15.18 381.80-2.30L381.80-2.30L381.80-2.30Q383.07-7.48 384.22-13.00Z"></path></g></g><style>text {
  font-size: 64px;
  font-family: Arial Black;
  dominant-baseline: central;
  text-anchor: middle;
}</style></svg>